HIERARCHY
ROOT Hips
{
 OFFSET 0.000000 0.000000 0.000000
 CHANNELS 6 Xposition Yposition Zposition Yrotation Xrotation Zrotation
 JOINT Chest
 {
  OFFSET 0.000000 10.366939 -0.000175
  CHANNELS 3 Yrotation Xrotation Zrotation
  JOINT Chest2
  {
   OFFSET 0.000000 11.433790 0.000318
   CHANNELS 3 Yrotation Xrotation Zrotation
   JOINT Chest3
   {
    OFFSET 0.000000 10.331133 0.000000
    CHANNELS 3 Yrotation Xrotation Zrotation
    JOINT Chest4
    {
     OFFSET 0.000000 10.331133 0.000000
     CHANNELS 3 Yrotation Xrotation Zrotation
     JOINT Neck
     {
      OFFSET 0.000000 14.530095 0.000000
      CHANNELS 3 Yrotation Xrotation Zrotation
      JOINT Head
      {
       OFFSET 0.000000 9.616255 0.000757
       CHANNELS 3 Yrotation Xrotation Zrotation
       End Site
       {
        OFFSET 0.000000 18.398191 0.000395
       }
      }
     }
     JOINT RightCollar
     {
      OFFSET -3.159467 8.107572 0.000000
      CHANNELS 3 Yrotation Xrotation Zrotation
      JOINT RightShoulder
      {
       OFFSET -14.759419 0.000000 0.000000
       CHANNELS 3 Yrotation Xrotation Zrotation
       JOINT RightElbow
       {
        OFFSET 0.000000 -31.561777 0.000000
        CHANNELS 3 Yrotation Xrotation Zrotation
        JOINT RightWrist
        {
         OFFSET 0.000000 -25.811607 0.000000
         CHANNELS 3 Yrotation Xrotation Zrotation
         End Site
         {
          OFFSET 0.000000 -19.296333 0.000000
         }
        }
       }
      }
     }
     JOINT LeftCollar
     {
      OFFSET 3.159467 8.107572 0.000000
      CHANNELS 3 Yrotation Xrotation Zrotation
      JOINT LeftShoulder
      {
       OFFSET 14.759419 0.000000 0.000000
       CHANNELS 3 Yrotation Xrotation Zrotation
       JOINT LeftElbow
       {
        OFFSET 0.000000 -31.561777 0.000000
        CHANNELS 3 Yrotation Xrotation Zrotation
        JOINT LeftWrist
        {
         OFFSET 0.000000 -25.811607 0.000000
         CHANNELS 3 Yrotation Xrotation Zrotation
         End Site
         {
          OFFSET 0.000000 -19.296333 0.000000
         }
        }
       }
      }
     }
    }
   }
  }
 }
 JOINT RightHip
 {
  OFFSET -8.420485 0.000859 0.000088
  CHANNELS 3 Yrotation Xrotation Zrotation
  JOINT RightKnee
  {
   OFFSET 0.000000 -43.611855 -0.000083
   CHANNELS 3 Yrotation Xrotation Zrotation
   JOINT RightAnkle
   {
    OFFSET 0.000000 -42.630478 -0.000140
    CHANNELS 3 Yrotation Xrotation Zrotation
    JOINT RightToe
    {
     OFFSET 0.000000 -7.539428 17.119853
     CHANNELS 3 Yrotation Xrotation Zrotation
     End Site
     {
      OFFSET 0.000000 -1.595212 6.940629
     }
    }
   }
  }
 }
 JOINT LeftHip
 {
  OFFSET 8.420485 0.000859 0.000088
  CHANNELS 3 Yrotation Xrotation Zrotation
  JOINT LeftKnee
  {
   OFFSET 0.000000 -43.611855 -0.000083
   CHANNELS 3 Yrotation Xrotation Zrotation
   JOINT LeftAnkle
   {
    OFFSET 0.000000 -42.630478 -0.000140
    CHANNELS 3 Yrotation Xrotation Zrotation
    JOINT LeftToe
    {
     OFFSET 0.000000 -7.539428 17.119853
     CHANNELS 3 Yrotation Xrotation Zrotation
     End Site
     {
      OFFSET 0.000000 -1.595212 6.940629
     }
    }
   }
  }
 }
}
MOTION
Frames: 5
Frame Time: 0.008333
408.390557 46.955680 122.098885 -79.284925 -15.224852 1.152589 0.882097 12.908432 -0.523534 0.243448 5.664912 -0.638334 0.243448 5.664912 -0.638334 0.188371 4.248436 -0.480623 -0.854304 11.831071 0.197339 -1.721419 -14.205803 0.746675 0.289522 3.826079 10.734213 3.398430 -25.048059 -24.711249 68.137225 -49.183199 -36.976528 21.052967 -9.306337 10.079008 0.952180 1.691548 -8.624120 -0.677995 -27.277949 12.928085 -52.010756 -27.425622 15.762611 -20.890579 -3.348003 -11.379033 -9.492825 -78.312093 -12.217781 174.462627 67.274697 167.964611 2.418658 -19.365192 1.354654 -0.260990 0.828088 -0.110583 -17.821883 -79.246832 43.503135 -147.252659 63.299374 -148.840503 0.402135 -13.889660 -1.388090 -0.499063 -1.191416 -0.221709
408.389860 46.956894 122.099328 -79.283363 -15.222111 1.141587 0.888835 12.904254 -0.515662 0.242593 5.664188 -0.639082 0.242593 5.664188 -0.639082 0.187737 4.247894 -0.481175 -0.853885 11.831894 0.198051 -1.720911 -14.204269 0.747844 0.288684 3.829982 10.718286 3.389522 -25.043200 -24.691576 68.133239 -49.185284 -36.970244 21.064450 -9.308448 10.072387 0.956778 1.690248 -8.623273 -0.686836 -27.270937 12.932884 -52.061117 -27.392254 15.763704 -20.838635 -3.385178 -11.357069 -9.537780 -78.308297 -12.168898 174.456987 67.277805 167.961135 2.396247 -19.367220 1.364621 -0.260513 0.829571 -0.113034 -17.880536 -79.247960 43.566417 -147.262803 63.299920 -148.850374 0.391190 -13.885380 -1.386975 -0.494837 -1.194638 -0.218174
408.387117 46.958041 122.098094 -79.280917 -15.223441 1.129601 0.894855 12.905016 -0.511398 0.244080 5.662566 -0.640135 0.244080 5.662566 -0.640135 0.188859 4.246675 -0.481978 -0.857081 11.835139 0.200490 -1.728032 -14.198154 0.753835 0.277515 3.837318 10.714924 3.387403 -25.039687 -24.678083 68.130507 -49.182596 -36.958064 21.074751 -9.308420 10.061215 0.937961 1.695706 -8.614779 -0.686433 -27.273485 12.939960 -52.113905 -27.389064 15.772297 -20.790583 -3.382350 -11.361307 -9.597711 -78.301563 -12.105864 174.458745 67.277076 167.959717 2.394714 -19.369968 1.366422 -0.258881 0.828426 -0.112135 -17.954117 -79.241047 43.643982 -147.266329 63.298344 -148.856353 0.384747 -13.885782 -1.388536 -0.491420 -1.195743 -0.215211
408.386079 46.958780 122.097323 -79.270031 -15.218822 1.123410 0.887802 12.895678 -0.512463 0.244144 5.661119 -0.642515 0.244144 5.661119 -0.642515 0.188928 4.245589 -0.483762 -0.857477 11.839068 0.202004 -1.729381 -14.190825 0.756836 0.270695 3.845356 10.709695 3.381928 -25.035103 -24.661013 68.129664 -49.181041 -36.954946 21.080562 -9.308492 10.058741 0.935409 1.700820 -8.605825 -0.686186 -27.271713 12.941790 -52.148761 -27.351082 15.766816 -20.756910 -3.414687 -11.349144 -9.618756 -78.300934 -12.092210 174.474690 67.278769 167.975920 2.394259 -19.374918 1.370295 -0.259799 0.829543 -0.113086 -17.992554 -79.246939 43.676853 -147.273647 63.301802 -148.858132 0.369076 -13.877934 -1.396695 -0.479316 -1.199540 -0.208082
408.381171 46.958964 122.095606 -79.277899 -15.221055 1.119712 0.890858 12.904138 -0.514375 0.245388 5.660151 -0.644404 0.245388 5.660151 -0.644404 0.189877 4.244861 -0.485188 -0.858372 11.838858 0.203541 -1.731762 -14.191175 0.760170 0.272883 3.841497 10.701190 3.354169 -25.034059 -24.629577 68.139773 -49.170463 -36.950772 21.098792 -9.309813 10.048820 0.929686 1.701092 -8.602069 -0.680357 -27.273870 12.953889 -52.199226 -27.357297 15.769574 -20.733669 -3.407508 -11.357725 -9.625887 -78.295492 -12.076796 174.478163 67.274792 167.978936 2.415273 -19.380579 1.367881 -0.266280 0.828825 -0.115566 -18.009327 -79.240481 43.709329 -147.284170 63.299118 -148.862033 0.346068 -13.885751 -1.403359 -0.466015 -1.197718 -0.202132
